<?xml version="1.0" standalone="no"?>
<!DOCTYPE svg PUBLIC "-//W3C//DTD SVG 20010904//EN"
 "http://www.w3.org/TR/2001/REC-SVG-20010904/DTD/svg10.dtd">
<svg version="1.0" xmlns="http://www.w3.org/2000/svg"
 width="250.000000pt" height="250.000000pt" viewBox="0 0 250.000000 250.000000"
 preserveAspectRatio="xMidYMid meet">
<metadata>
Created by potrace 1.14, written by Peter Selinger 2001-2017
</metadata>
<g transform="translate(0.000000,250.000000) scale(0.100000,-0.100000)"
fill="#000000" stroke="none">
<path d="M637 2443 c-13 -15 -58 -149 -72 -217 -6 -24 -170 -613 -190 -676
-38 -127 -46 -169 -33 -190 7 -11 26 -22 43 -25 16 -2 263 -4 547 -2 556 2
542 1 552 53 3 10 66 237 141 504 75 267 137 495 137 508 0 12 -8 32 -17 42
-18 19 -34 20 -555 20 -499 0 -538 -1 -553 -17z"/>
<path d="M1766 1951 c-13 -14 -91 -271 -141 -463 -3 -10 -8 -28 -12 -40 -12
-43 -7 -90 12 -104 24 -18 588 -15 606 3 10 10 60 177 143 479 25 90 20 128
-17 138 -12 3 -146 6 -298 6 -258 0 -277 -1 -293 -19z"/>
<path d="M275 1150 c-18 -20 -165 -523 -165 -565 0 -36 26 -55 78 -56 207 -4
525 2 541 10 13 8 38 81 96 285 81 288 85 319 42 335 -12 5 -146 9 -298 9
-261 1 -278 0 -294 -18z"/>
<path d="M1045 1156 c-15 -11 -56 -147 -180 -591 -26 -93 -64 -232 -86 -307
-44 -154 -47 -178 -21 -201 17 -15 70 -17 553 -17 294 0 539 4 545 8 19 12 32
44 63 158 16 60 64 231 106 379 146 518 148 526 134 551 -6 13 -24 25 -38 28
-14 3 -259 5 -543 4 -373 0 -522 -4 -533 -12z"/>
</g>
</svg>
